<svg id="katman_1" data-name="katman 1" xmlns="http://www.w3.org/2000/svg" xmlns:xlink="http://www.w3.org/1999/xlink" viewBox="0 0 32 32"><defs><style>.cls-1{fill:#fff;}.cls-1,.cls-2,.cls-4,.cls-5,.cls-6{stroke:#1d1d1b;}.cls-1,.cls-2,.cls-3,.cls-4,.cls-5,.cls-6{stroke-miterlimit:10;stroke-width:0.03px;}.cls-2{fill:url(#Adsız_degrade_112);}.cls-3{stroke:#1c1a1b;fill:url(#Adsız_degrade_109);}.cls-4{fill:url(#Adsız_degrade_78);}.cls-5{fill:url(#Adsız_degrade_109-2);}.cls-6{fill:url(#Adsız_degrade_114);}</style><linearGradient id="Adsız_degrade_112" x1="24.37" y1="14.69" x2="30.29" y2="14.69" gradientUnits="userSpaceOnUse"><stop offset="0" stop-color="#82929c"/><stop offset="0.09" stop-color="#8798a2"/><stop offset="0.21" stop-color="#96a7b2"/><stop offset="0.35" stop-color="#aec1ce"/><stop offset="0.5" stop-color="#d0e6f3"/><stop offset="0.53" stop-color="#d9effd"/><stop offset="0.57" stop-color="#c8deec"/><stop offset="0.65" stop-color="#a5bbc9"/><stop offset="0.74" stop-color="#8a9fad"/><stop offset="0.83" stop-color="#778b99"/><stop offset="0.91" stop-color="#6b7f8d"/><stop offset="1" stop-color="#677b89"/></linearGradient><linearGradient id="Adsız_degrade_109" x1="15.85" y1="9.01" x2="20.93" y2="9.01" gradientUnits="userSpaceOnUse"><stop offset="0" stop-color="#82929c"/><stop offset="0.53" stop-color="#d9effd"/><stop offset="1" stop-color="#677b89"/></linearGradient><linearGradient id="Adsız_degrade_78" x1="4.34" y1="15.03" x2="28.52" y2="15.03" gradientUnits="userSpaceOnUse"><stop offset="0.16" stop-color="#a07419"/><stop offset="0.36" stop-color="#f3d267"/><stop offset="0.61" stop-color="#946719"/></linearGradient><linearGradient id="Adsız_degrade_109-2" x1="14.49" y1="20.2" x2="23.05" y2="20.2" xlink:href="#Adsız_degrade_109"/><linearGradient id="Adsız_degrade_114" x1="18.95" y1="14.54" x2="24.94" y2="14.54" gradientUnits="userSpaceOnUse"><stop offset="0" stop-color="#82929c"/><stop offset="0.09" stop-color="#899aa4"/><stop offset="0.23" stop-color="#9eb0bb"/><stop offset="0.41" stop-color="#bfd3e0"/><stop offset="0.53" stop-color="#d9effd"/><stop offset="0.54" stop-color="#d5ebf9"/><stop offset="0.69" stop-color="#a6bbc9"/><stop offset="0.82" stop-color="#8498a6"/><stop offset="0.93" stop-color="#6f8391"/><stop offset="1" stop-color="#677b89"/></linearGradient></defs><title>logo</title><rect class="cls-1" width="32" height="32"/><path class="cls-2" d="M29.63,12.49,27,12.3a1.76,1.76,0,0,0-1.8,1.18l-.79,2.29A.91.91,0,0,0,25.26,17l2.39.09a1.76,1.76,0,0,0,1.71-1.15l.89-2.48A.72.72,0,0,0,29.63,12.49Zm-.78,1.36-.58,1.61a.78.78,0,0,1-.75.5H26.05a.33.33,0,0,1-.3-.44l.64-1.63a.74.74,0,0,1,.71-.48l1.48,0A.29.29,0,0,1,28.85,13.85Z"/><path class="cls-3" d="M14.72,10.81l2.07,2.93,2.8-4.33.51.66,1.41-5.78L15.42,9.11l2.14-1.43Z"/><path class="cls-4" d="M13.31,4.32,12,8l4.46,6.19-5.33,7.19L4.34,25.74l3-7.26.81,1.17,4.1-5.32-3.91-5-1.24,0Z"/><path class="cls-5" d="M16.77,15.15l-2.28,3L17,21.39l6.05,3.86Z"/><path class="cls-6" d="M23.35,13.6H24.5l.44-1.3-3.55-.15a1.54,1.54,0,0,0-1.52,1L19,15.65a.93.93,0,0,0,.87,1.23l3.54.06,1-2.64H22l-.35.89,1.33,0-.27.72H20.59a.39.39,0,0,1-.23-.17.32.32,0,0,1,0-.26L21,13.71a.76.76,0,0,1,.72-.49l1.75,0Z"/></svg>